<?xml version="1.0" standalone="no"?>
<!DOCTYPE svg PUBLIC "-//W3C//DTD SVG 20010904//EN"
 "http://www.w3.org/TR/2001/REC-SVG-20010904/DTD/svg10.dtd">
<svg version="1.0" xmlns="http://www.w3.org/2000/svg"
 width="731.000000pt" height="624.000000pt" viewBox="0 0 731.000000 624.000000"
 preserveAspectRatio="xMidYMid meet">

<g transform="translate(0.000000,624.000000) scale(0.100000,-0.100000)"
fill="#000000" stroke="none">
<path d="M1139 5135 c-314 -63 -474 -165 -495 -317 -8 -58 9 -110 52 -158 45
-50 110 -76 255 -104 117 -22 119 -22 119 -3 0 37 69 225 118 323 50 98 72
135 139 227 l35 47 -79 -1 c-43 0 -108 -7 -144 -14z"/>
<path d="M6045 4878 c-47 -59 -74 -100 -73 -113 4 -25 148 -108 172 -99 27 10
49 107 44 195 -8 140 -39 143 -143 17z"/>
<path d="M4954 4925 c-14 -22 -16 -41 -10 -123 4 -53 9 -107 12 -119 9 -36 47
-39 112 -10 31 14 76 30 99 37 80 21 68 68 -44 170 -84 77 -139 91 -169 45z"/>
<path d="M1739 4804 c-129 -87 -242 -188 -334 -298 -46 -55 -89 -109 -95 -120
-9 -18 -3 -35 42 -113 l52 -92 53 59 c132 146 265 254 410 336 46 26 85 50 88
53 5 9 -108 224 -121 228 -5 2 -48 -22 -95 -53z"/>
<path d="M5200 4378 c-40 -21 -62 -74 -57 -141 6 -102 72 -129 97 -39 13 48
12 68 -4 115 -13 34 -12 37 6 37 10 0 30 -11 44 -25 30 -30 44 -32 44 -6 0 51
-78 86 -130 59z"/>
<path d="M5882 4365 c-23 -19 -31 -36 -36 -75 -13 -100 32 -177 77 -132 27 28
35 118 14 161 -15 31 -15 31 11 31 15 0 42 -9 60 -20 41 -25 52 -25 52 -1 0
59 -122 83 -178 36z"/>
<path d="M2249 4303 c-77 -85 -158 -278 -128 -308 13 -13 24 2 39 50 20 64 64
144 124 228 31 43 56 80 56 83 0 2 -9 4 -19 4 -10 0 -43 -26 -72 -57z"/>
<path d="M4696 4237 c9 -138 66 -271 159 -375 l46 -51 -45 -61 c-25 -33 -48
-70 -51 -81 -12 -35 5 -35 33 1 15 19 43 52 62 73 l36 39 64 -35 c73 -40 157
-67 207 -67 50 0 40 15 -19 29 -29 6 -91 30 -137 53 l-84 42 34 28 c48 41 124
74 236 106 l97 27 -64 3 c-84 4 -178 -26 -265 -84 -36 -24 -69 -44 -74 -44
-19 0 -121 125 -154 188 -41 79 -53 116 -72 214 l-14 73 5 -78z"/>
<path d="M5516 4104 c-30 -29 -14 -59 45 -90 28 -14 29 -16 15 -42 -8 -15 -25
-37 -38 -49 -24 -22 -90 -45 -111 -38 -44 13 -77 13 -77 1 0 -23 56 -39 120
-34 47 3 70 11 104 35 32 23 46 28 49 18 10 -24 94 -49 130 -39 48 14 41 38
-14 44 -101 12 -131 70 -59 115 41 26 52 59 28 83 -19 19 -173 16 -192 -4z"/>
<path d="M5935 4100 c-150 -39 -165 -62 -25 -36 163 31 351 16 499 -41 76 -28
95 -32 100 -18 5 15 -121 74 -206 95 -101 26 -270 26 -368 0z"/>
<path d="M5058 4090 c-98 -17 -216 -69 -204 -89 3 -5 41 2 83 16 149 47 305
50 425 7 56 -19 75 -2 22 21 -102 43 -237 61 -326 45z"/>
<path d="M5812 3998 c3 -7 38 -22 79 -34 135 -38 261 -111 377 -217 31 -27 47
-36 54 -29 8 8 1 23 -22 51 -80 103 -240 195 -389 227 -82 17 -104 17 -99 2z"/>
<path d="M5535 3490 c11 -50 7 -136 -8 -172 -18 -43 -65 -98 -83 -98 -10 0
-14 12 -14 39 0 50 -12 58 -49 32 -39 -28 -132 -71 -153 -71 -16 0 -15 3 2 43
41 88 11 83 -41 -8 -16 -27 -29 -53 -29 -57 0 -26 158 7 203 42 14 11 28 20
31 20 3 0 6 -20 6 -45 0 -32 4 -45 14 -45 23 0 98 62 131 108 25 37 30 54 33
115 3 73 -10 116 -37 125 -10 3 -11 -3 -6 -28z"/>
<path d="M5778 3161 c-122 -143 -231 -218 -445 -306 -100 -41 -119 -59 -50
-49 149 23 351 138 483 276 51 52 104 128 104 148 0 26 -31 3 -92 -69z"/>
<path d="M3200 2724 c-58 -8 -138 -13 -177 -11 -74 4 -96 -6 -45 -20 27 -8
158 -9 407 -4 72 1 140 1 152 -1 38 -5 30 14 -12 29 -57 21 -203 24 -325 7z"/>
<path d="M5861 2429 c11 -23 23 -66 26 -95 4 -35 10 -54 19 -54 17 0 28 60 20
104 -7 38 -47 86 -71 86 -13 0 -12 -6 6 -41z"/>
<path d="M5665 2420 c-3 -5 4 -23 17 -40 12 -17 25 -51 28 -77 6 -53 24 -66
41 -30 17 38 2 96 -33 129 -32 30 -43 34 -53 18z"/>
<path d="M3417 2363 c-4 -6 -3 -23 2 -39 4 -16 6 -46 3 -66 -2 -21 0 -38 5
-38 36 0 46 92 15 131 -11 13 -21 18 -25 12z"/>
<path d="M2287 2298 c4 -13 8 -43 9 -68 1 -62 2 -64 19 -50 17 14 20 91 5 121
-16 28 -44 25 -33 -3z"/>
<path d="M2415 2278 c4 -13 12 -42 18 -66 6 -23 15 -41 21 -39 18 6 18 63 1
96 -19 37 -51 44 -40 9z"/>
<path d="M4822 2173 c1 -29 -5 -49 -17 -63 -21 -23 -15 -35 13 -26 19 6 42 45
42 70 0 8 -9 24 -20 37 l-19 24 1 -42z"/>
<path d="M958 2033 c-17 -4 -18 -30 -18 -357 0 -329 1 -354 18 -369 16 -15 45
-17 196 -17 l176 0 10 26 c6 14 10 47 10 74 0 27 -4 60 -10 74 -9 25 -12 26
-95 26 l-85 0 0 265 0 265 -26 10 c-25 10 -143 12 -176 3z"/>
<path d="M1390 2021 c-5 -11 -10 -45 -10 -76 0 -77 11 -95 60 -95 l40 0 0
-190 0 -190 -40 0 c-34 0 -42 -4 -50 -26 -6 -14 -10 -43 -10 -64 0 -21 4 -50
10 -64 l10 -26 190 0 190 0 10 26 c13 33 13 95 0 128 -8 22 -16 26 -50 26
l-40 0 0 190 0 190 34 0 c18 0 39 7 46 15 16 20 16 140 0 160 -10 12 -45 15
-196 15 -171 0 -184 -1 -194 -19z"/>
<path d="M1883 2034 c-10 -4 -13 -88 -13 -369 0 -414 -10 -375 100 -375 107 0
100 -12 100 179 l0 166 85 -160 c47 -88 93 -166 102 -172 20 -16 156 -17 184
-3 18 10 19 25 19 366 l0 354 -26 10 c-29 11 -96 13 -143 4 l-31 -6 -2 -171
-3 -171 -83 161 c-45 88 -89 166 -97 173 -15 13 -171 24 -192 14z"/>
<path d="M2572 2028 c-17 -17 -17 -709 0 -726 9 -9 69 -12 210 -12 227 0 212
-7 213 96 0 89 -7 94 -126 94 l-99 0 0 50 0 50 70 0 c80 0 90 9 90 84 0 74 -3
76 -86 76 l-74 0 0 55 0 54 108 3 107 3 3 70 c5 125 23 115 -206 115 -141 0
-201 -3 -210 -12z"/>
<path d="M3145 2034 c-11 -3 -23 -9 -27 -12 -3 -4 -12 -164 -18 -356 -12 -334
-12 -350 6 -363 21 -15 131 -18 168 -3 26 9 26 11 27 122 1 62 4 156 8 208 l6
95 64 -210 c35 -115 69 -213 75 -217 13 -9 98 -10 119 -2 9 3 39 88 78 214 34
115 64 208 65 207 1 -1 7 -94 13 -207 8 -137 16 -207 24 -213 14 -9 182 -5
192 5 11 11 -23 710 -35 722 -7 7 -61 11 -135 11 -99 0 -127 -3 -140 -16 -8
-8 -36 -82 -61 -165 -25 -82 -49 -153 -54 -157 -4 -5 -33 66 -65 157 -36 104
-63 167 -74 171 -21 9 -210 16 -236 9z"/>
<path d="M4233 2033 c-12 -2 -24 -12 -27 -21 -28 -87 -184 -707 -180 -711 3
-3 38 -7 77 -9 102 -4 117 6 135 91 l15 67 87 0 87 0 13 -62 c19 -89 32 -98
138 -98 48 0 92 4 98 8 8 5 -15 113 -80 367 -86 338 -93 360 -116 366 -27 8
-211 9 -247 2z m157 -430 c0 -9 -17 -13 -54 -13 l-55 0 25 93 c14 50 27 101
31 112 4 13 14 -14 29 -80 13 -55 23 -106 24 -112z"/>
<path d="M4760 2021 c-14 -27 -14 -685 0 -712 10 -18 23 -19 211 -19 l199 0
10 26 c6 14 10 45 10 69 0 24 -4 55 -10 69 -9 26 -11 26 -110 26 l-100 0 0 50
0 50 70 0 c80 0 84 4 78 101 l-3 54 -72 3 -73 3 0 54 0 54 102 3 102 3 9 42
c4 22 4 63 0 90 l-8 48 -202 3 c-192 2 -203 1 -213 -17z"/>
<path d="M5263 2033 c-9 -6 2 -97 44 -363 30 -195 59 -359 64 -365 15 -16 229
-18 258 -3 20 11 30 35 60 145 20 72 39 134 42 137 3 3 21 -58 39 -135 31
-127 37 -142 60 -151 40 -15 236 -6 254 12 17 18 142 691 132 716 -5 13 -21
15 -110 12 -58 -1 -107 -5 -110 -8 -3 -3 -17 -93 -31 -200 -15 -107 -30 -206
-34 -218 -5 -17 -21 37 -59 196 -37 152 -58 222 -68 226 -20 8 -118 8 -137 0
-10 -4 -33 -77 -68 -220 -30 -117 -56 -210 -60 -206 -3 4 -16 97 -29 207 -12
110 -26 204 -31 210 -12 12 -200 19 -216 8z"/>
</g>
</svg>
